<svg xmlns="http://www.w3.org/2000/svg" width="620" height="150" viewBox="0 0 620 150"><rect width="620" height="150" rx="18" fill="white"/><circle cx="75" cy="75" r="50" fill="none" stroke="#17191d" stroke-width="8"/><circle cx="75" cy="75" r="39" fill="#e21a1a"/><path d="M55 43h24c19 0 29 8 29 21 0 8-4 14-11 17 10 3 15 10 15 20 0 15-12 25-32 25H55V43zm22 32c8 0 12-3 12-9 0-5-4-8-12-8h-4v17h4zm3 35c9 0 14-4 14-10s-5-10-14-10h-7v20h7z" fill="white"/><text x="145" y="78" font-family="Arial,sans-serif" font-size="54" font-weight="800" fill="#111820">Bosc</text><text x="270" y="78" font-family="Arial,sans-serif" font-size="54" font-weight="800" fill="#e21a1a">Tech</text><text x="147" y="112" font-family="Arial,sans-serif" font-size="22" fill="#59616a">Reparación · Servicio Técnico Bosch</text></svg>